<svg viewBox="0 0 193.672 49.287" xmlns="http://www.w3.org/2000/svg"><g fill="#060f30"><path d="M102.049 12.693a20.753 20.753 0 0 0-3.615-.282 12.489 12.489 0 0 0-1.865.229 7.2 7.2 0 0 0-1 .314 8.262 8.262 0 0 0-2.129 1.241 8.9 8.9 0 0 0-1.638 1.709 5.412 5.412 0 0 0-.913 1.918h-.142v-4.678h-4.956v24.3h5.286v-11.61a11.242 11.242 0 0 1 .515-3.558 7.828 7.828 0 0 1 1.4-2.6 5.873 5.873 0 0 1 3.3-1.991 6.775 6.775 0 0 1 1.331-.136h.523c.093 0 .168.01.168.01a15.816 15.816 0 0 1 2.145-3.275 12.482 12.482 0 0 1 1.59-1.591zM66.23 18.291a5.206 5.206 0 0 1 2.153-1.31 7.707 7.707 0 0 1 2.2-.352 5.886 5.886 0 0 1 3.72 1.146 5.01 5.01 0 0 1 1.8 3.394h5.335a9.285 9.285 0 0 0-1.124-3.884 8.6 8.6 0 0 0-2.41-2.714 10.527 10.527 0 0 0-3.37-1.614 14.636 14.636 0 0 0-4-.537 12.577 12.577 0 0 0-5.219 1.005 10.522 10.522 0 0 0-3.72 2.762 11.633 11.633 0 0 0-2.246 4.142 16.939 16.939 0 0 0-.749 5.1 15.421 15.421 0 0 0 .772 4.96 11.128 11.128 0 0 0 2.27 3.955 10.646 10.646 0 0 0 3.674 2.621 12.357 12.357 0 0 0 5.031.96 10.92 10.92 0 0 0 7.51-2.5 11.717 11.717 0 0 0 3.579-7.23h-5.335a6.746 6.746 0 0 1-1.894 4.071 5.365 5.365 0 0 1-3.862 1.45 5.657 5.657 0 0 1-2.949-.725 6.088 6.088 0 0 1-1.989-1.9 8.2 8.2 0 0 1-1.124-2.667 13.137 13.137 0 0 1-.352-2.995 12.667 12.667 0 0 1 .656-4.47 7.358 7.358 0 0 1 1.643-2.668zM144.171 14.007a10.018 10.018 0 0 0-3.111-1.217 16.622 16.622 0 0 0-3.51-.375 20.373 20.373 0 0 0-3.931.375 10.291 10.291 0 0 0-3.439 1.31 7.739 7.739 0 0 0-2.5 2.481 8.038 8.038 0 0 0-1.124 3.884h5.336a3.65 3.65 0 0 1 1.638-2.9 6.7 6.7 0 0 1 3.7-.936 13.12 13.12 0 0 1 1.685.117 5.255 5.255 0 0 1 1.614.468 3.289 3.289 0 0 1 1.217 1.005 2.733 2.733 0 0 1 .492 1.685 2.383 2.383 0 0 1-.585 1.754 3.527 3.527 0 0 1-1.592.865 12.861 12.861 0 0 1-2.317.4q-1.31.119-2.762.4-1.686.187-3.346.537a9.711 9.711 0 0 0-2.995 1.146 6.072 6.072 0 0 0-2.153 2.2 7.176 7.176 0 0 0-.82 3.65 6.761 6.761 0 0 0 .68 3.113 6.275 6.275 0 0 0 1.825 2.2 8.227 8.227 0 0 0 2.645 1.31 10.952 10.952 0 0 0 3.135.444 15.4 15.4 0 0 0 4.47-.7 9.438 9.438 0 0 0 3.907-2.246c-.024.527-.024 2.007-.024 2.007v.468h4.915l.024-5.563V19.433a5.974 5.974 0 0 0-.842-3.251 6.827 6.827 0 0 0-2.232-2.175zm-2.27 15.117a3.617 3.617 0 0 1-.608 2.129 5.124 5.124 0 0 1-1.521 1.428 6.42 6.42 0 0 1-1.942.8 8.685 8.685 0 0 1-1.918.233 9.966 9.966 0 0 1-1.568-.14 5.662 5.662 0 0 1-1.59-.492 3.715 3.715 0 0 1-1.241-.96 2.236 2.236 0 0 1-.516-1.5 3.985 3.985 0 0 1 .352-1.754 3.057 3.057 0 0 1 .96-1.169 4.924 4.924 0 0 1 1.4-.7 11.249 11.249 0 0 1 1.638-.4q1.778-.326 3.558-.492a6.462 6.462 0 0 0 2.995-.96v3.976zM188.104 12.607l-6.131 18.533h-.09l-6.317-18.533h-5.853l9.172 24.57-.609 1.868a10.357 10.357 0 0 1-.516 1.4 4.2 4.2 0 0 1-.68 1.053 2.576 2.576 0 0 1-1.005.68 4.348 4.348 0 0 1-1.545.233 6.761 6.761 0 0 1-1.264-.117 26.206 26.206 0 0 0-1.264-.211v4.492a24.225 24.225 0 0 0 3.7.281 7.731 7.731 0 0 0 3.463-.68 6.672 6.672 0 0 0 2.27-1.825 11.185 11.185 0 0 0 1.545-2.645q.631-1.5 1.288-3.135l9.407-25.974h-5.569zM166.41 12.5a.056.056 0 0 0-.047-.036 12.752 12.752 0 0 0-3.33.122 7.989 7.989 0 0 0-1.219.365 8.261 8.261 0 0 0-2.13 1.241 8.89 8.89 0 0 0-1.637 1.709 5.408 5.408 0 0 0-.913 1.918h-.142v-4.624a.055.055 0 0 0-.055-.055h-4.852a.055.055 0 0 0-.055.055v24.246a.055.055 0 0 0 .055.055h5.179a.055.055 0 0 0 .055-.055V25.822a11.24 11.24 0 0 1 .516-3.558 7.831 7.831 0 0 1 1.4-2.6 5.858 5.858 0 0 1 2.082-1.59 7.5 7.5 0 0 1 2.649-.591 25.383 25.383 0 0 1 4.219.122.054.054 0 0 0 .055-.073l-1.282-3.512zM120.371 16.771a11.269 11.269 0 0 0-3.767-3.159 10.839 10.839 0 0 0-5.124-1.193 10.975 10.975 0 0 0-8.542 3.814 12.541 12.541 0 0 0-2.341 4.071 14.534 14.534 0 0 0-.82 4.891 16.328 16.328 0 0 0 .772 5.148 11.094 11.094 0 0 0 2.293 4.024 10.439 10.439 0 0 0 3.72 2.621 12.8 12.8 0 0 0 5.055.936 13.137 13.137 0 0 0 3.767-.537 10.7 10.7 0 0 0 3.253-1.59 10.024 10.024 0 0 0 3.931-6.108h-5.055a5.941 5.941 0 0 1-2.129 3.018 6.406 6.406 0 0 1-3.767 1.005 6.625 6.625 0 0 1-2.9-.585 5.742 5.742 0 0 1-2.013-1.568 6.654 6.654 0 0 1-1.193-2.293 9.3 9.3 0 0 1-.4-2.714h17.79a13.863 13.863 0 0 0-.352-5.264 12.766 12.766 0 0 0-2.178-4.517zm-15.256 6.272a7.143 7.143 0 0 1 .537-2.526 6.754 6.754 0 0 1 1.31-2.037 5.834 5.834 0 0 1 1.966-1.357 6.4 6.4 0 0 1 2.55-.492 5.532 5.532 0 0 1 2.457.537 6.06 6.06 0 0 1 1.873 1.4 6.467 6.467 0 0 1 1.217 2.037 8.56 8.56 0 0 1 .537 2.434z"/></g><path d="M42.067 7.218a24.643 24.643 0 1 0 7.218 17.425 24.487 24.487 0 0 0-7.218-17.425zm-17.424 29.68A12.331 12.331 0 0 1 12.82 21.065l4.6 2.72a7.262 7.262 0 1 0 7.22-6.477 7.205 7.205 0 0 0-3.652.988c-.154.089-.3.186-.448.284l-4.634-2.7a12.326 12.326 0 1 1 8.735 21.018z" fill="#070f31"/></svg>