<svg viewBox="0 0 35 35.074" xmlns="http://www.w3.org/2000/svg"><path d="m26.722 18.265-4.21-.027a.8.8 0 0 1-.592-.728v-.062a.8.8 0 0 1 .64-.756l4.163-.026a8.331 8.331 0 1 0-8.383-8.348l.041 6.5v.748a.807.807 0 0 1-.766.8h-.062a.8.8 0 0 1-.778-.8v-.748h-.012V8.593c0-.07.011-.139.011-.21s-.009-.139-.011-.21v-.147h-.007a8.373 8.373 0 0 0-16.731 0H0v18.24h.021c-.007.141-.021.28-.021.424a8.384 8.384 0 1 0 16.767 0c0-.143-.014-.283-.021-.424h.011v-6.969h.014a.807.807 0 0 1 .763-.741h.066a.8.8 0 0 1 .776.741h.013l-.047 7.316a8.33 8.33 0 1 0 8.382-8.348" fill="#070f31"/></svg>