<svg viewBox="0 0 223.37 43.175" xmlns="http://www.w3.org/2000/svg"><clipPath id="a"><path d="M0 0h223.37v43.175H0z"/></clipPath><g clip-path="url('#a')" fill="#070f31"><path d="M33.382 35.329q-.2-2.214-.429-5.124t-.462-6.09q-.232-3.18-.458-6.4t-.385-6.026q-.855 2.626-1.73 5.279L28.257 22q-.787 2.382-1.454 4.313t-1.081 3.116q-.438.8-.889 1.519a9.844 9.844 0 0 1-.927 1.262 4.643 4.643 0 0 1-.978.863 1.912 1.912 0 0 1-1.045.322 2.2 2.2 0 0 1-1.206-.309 1.349 1.349 0 0 1-.6-.927 2.186 2.186 0 0 1-.035-.245.851.851 0 0 1 .017-.245q-.865-3.656-1.665-7.377t-1.5-7.326l-.33-1.7q-.165-.849-.3-1.674-.58 2.318-1.3 4.815t-1.574 4.935q-.84 2.433-1.793 4.687a41.038 41.038 0 0 1-1.985 4.094 20.073 20.073 0 0 1-2.132 3.141 6.585 6.585 0 0 1-2.237 1.816 11.536 11.536 0 0 1-1.757.631 5.651 5.651 0 0 1-1.379.193 2.461 2.461 0 0 1-1.45-.373 1.452 1.452 0 0 1-.628-.914 1.9 1.9 0 0 1 .281-1.34A2.659 2.659 0 0 1 1.619 34.2a5.517 5.517 0 0 0 2.19-2.047A26.263 26.263 0 0 0 5.958 28.3q1.053-2.266 2.032-5.047t1.853-5.639q.874-2.858 1.6-5.6t1.277-4.957q.548-2.214.892-3.7t.428-1.841A1.837 1.837 0 0 1 14.822.36 2.294 2.294 0 0 1 16.065 0a1.783 1.783 0 0 1 1.385.5 3.8 3.8 0 0 1 .708 1.79q.521 1.622.94 3.051t.815 2.935q.4 1.506.772 3.245t.816 4q.315 1.622.631 3.579t.786 4.377q2-5.613 3.548-9.9T29.217 6.4a31.583 31.583 0 0 1 2.124-4.377Q32.264.541 32.985.541h.18a.861.861 0 0 0 .152-.013.912.912 0 0 1 .152-.013 1.408 1.408 0 0 1 1.129.772 5.554 5.554 0 0 1 .75 2.013q.142 1.262.3 3.141t.326 4.133q.168 2.254.344 4.751t.345 4.957q.169 2.459.349 4.777t.365 4.2a4.484 4.484 0 0 0 .081.682l.138.708q.13.67.288 1.352t.288 1.352q.15.773.225 1.558a3.251 3.251 0 0 1-.15 1.416 1.966 1.966 0 0 1-.894 1.03 3.939 3.939 0 0 1-1.983.4 1.635 1.635 0 0 1-1.21-.528 3.777 3.777 0 0 1-.78-1.893M223.276 28.657a2.222 2.222 0 0 0-.712-1.082 1.549 1.549 0 0 0-.966-.412.979.979 0 0 0-.388.077.563.563 0 0 0-.28.257q-.408.67-1.141 1.661a17.015 17.015 0 0 1-1.644 1.906 10.4 10.4 0 0 1-1.971 1.558 4.087 4.087 0 0 1-2.142.644 2.651 2.651 0 0 1-.962-.154 1.037 1.037 0 0 1-.574-.721 2.66 2.66 0 0 1-.055-1.326 7.128 7.128 0 0 1 .418-1.378 12.461 12.461 0 0 1 .609-1.262q.329-.592.517-.979a9.726 9.726 0 0 0 .863-2.549 5.913 5.913 0 0 0-.211-2.936 4.629 4.629 0 0 0-2.159-2.742 5.436 5.436 0 0 0-1.567-.605 7.894 7.894 0 0 0-1.679-.18 6.507 6.507 0 0 0-2.023.283 5.855 5.855 0 0 0-1.53.747 6.624 6.624 0 0 0-1.18 1.043 12.056 12.056 0 0 0-.921 1.172 5.075 5.075 0 0 0-.841-1.494 4.666 4.666 0 0 0-2.462-1.571 5.691 5.691 0 0 0-1.421-.18 6.659 6.659 0 0 0-2.472.412 6.366 6.366 0 0 0-1.772 1.043 8.686 8.686 0 0 0-1.307 1.378q-.565.747-1.058 1.391a3.91 3.91 0 0 0-.15-1.468 2.61 2.61 0 0 0-.934-1.378 2.19 2.19 0 0 0-1.295-.477 1.926 1.926 0 0 0-1.337.541 2.5 2.5 0 0 0-.707 1.648q-.1.9-.284 2.176t-.385 2.717l-.118.828q-1.1 1.646-2.142 2.932-.449.541-.94 1.069a11.183 11.183 0 0 1-.98.94 5.684 5.684 0 0 1-.94.657 1.772 1.772 0 0 1-.837.245 1.287 1.287 0 0 1-1.033-.5 3.729 3.729 0 0 1-.657-1.275 7.172 7.172 0 0 1-.267-1.429q-.082-.836-.1-1.789t.022-1.944q.037-.991.086-1.906t.085-1.661q.037-.747.012-1.236a1.313 1.313 0 0 0-.063-.283 2.354 2.354 0 0 0-.989-1.184 3.048 3.048 0 0 0-1.766-.541 2.012 2.012 0 0 0-.69.142 5.51 5.51 0 0 0-.71.322q-.4.207-.764.438a11.109 11.109 0 0 0-1.467-.9 11.515 11.515 0 0 0-1.635-.618 7.151 7.151 0 0 0-2.071-.283 8.359 8.359 0 0 0-3.728.76 7.614 7.614 0 0 0-2.546 1.983 8.854 8.854 0 0 0-1.541 2.768 13.832 13.832 0 0 0-.694 3.129 16.1 16.1 0 0 0-.073 2.3q-.412.293-.934.646-.84.567-1.9 1.2t-2.221 1.172a15.565 15.565 0 0 1-2.4.888 9 9 0 0 1-2.428.347 4.028 4.028 0 0 1-1.91-.425 2.594 2.594 0 0 1-1.165-1.172 30.557 30.557 0 0 0 5.03-2.562 13.259 13.259 0 0 0 2.939-2.5 5.17 5.17 0 0 0 1.2-2.408 4.848 4.848 0 0 0-.143-2.266 5.5 5.5 0 0 0-1.951-2.858 5.716 5.716 0 0 0-3.515-1.03 10.46 10.46 0 0 0-3.638.592 9.542 9.542 0 0 0-2.791 1.571 9.312 9.312 0 0 0-1.985 2.253 10.815 10.815 0 0 0-1.2 2.614 9.743 9.743 0 0 0-.427 2.665 8.272 8.272 0 0 0 .116 1.574l-.115.035a8.136 8.136 0 0 1-2.259.309 3.187 3.187 0 0 1-.664-.065 1.108 1.108 0 0 1-.572-.348 7.841 7.841 0 0 0 .379-1.789 18.05 18.05 0 0 0 .1-1.983 16.655 16.655 0 0 0-.094-1.738 6.7 6.7 0 0 0-.168-1.03 6.006 6.006 0 0 0-1.05-2 7.336 7.336 0 0 0-3.351-2.356 5.421 5.421 0 0 0-1.719-.309 7.368 7.368 0 0 0-2.122.3 9.212 9.212 0 0 0-1.844.772 10.794 10.794 0 0 0-1.593 1.082 16.112 16.112 0 0 0-1.36 1.249q.753-3.682 1.271-7.455t1.281-7.429a6.843 6.843 0 0 0 .216-1.12 2.706 2.706 0 0 0-.093-1.12 2.231 2.231 0 0 0-.831-1.133 2.99 2.99 0 0 0-1.806-.464 2.63 2.63 0 0 0-.87.142 2.446 2.446 0 0 0-.716.386 2.284 2.284 0 0 0-.509.554 1.616 1.616 0 0 0-.249.644l-2.288 16.711q-.1.67-.147 1.094t-.075.747q-.028.322-.051.618t-.053.7q-.03.4-.084.966t-.144 1.411q-.072.727-.071 1.482-.75.733-1.658 1.466a25.055 25.055 0 0 1-2.282 1.635 16.19 16.19 0 0 1-2.442 1.287 1.038 1.038 0 0 1-.482.27 2.327 2.327 0 0 1-.4.039.674.674 0 0 1-.46-.154.784.784 0 0 1-.242-.361 1.24 1.24 0 0 1 .036-.953q.112-.464.341-1.172l.5-1.558q.275-.849.526-1.815a16.837 16.837 0 0 0 .388-1.97 12.182 12.182 0 0 0 .1-2.009 7.19 7.19 0 0 0-.321-1.931 3.736 3.736 0 0 0-1.612-2.227 4.821 4.821 0 0 0-2.484-.657 8.122 8.122 0 0 0-2.441.386 12.325 12.325 0 0 0-2.316.992 9.794 9.794 0 0 0-1.9 1.365 5.028 5.028 0 0 0-1.159 1.481 3.07 3.07 0 0 0 .025-.824 3.853 3.853 0 0 0-.149-.721 2.477 2.477 0 0 0-.9-1.326 2.145 2.145 0 0 0-1.248-.451 1.972 1.972 0 0 0-1.35.541 2.671 2.671 0 0 0-.771 1.648c-.039.267-.085.561-.138.878a.393.393 0 0 0-.209.152q-.214.386-.543.94t-.753 1.172q-.425.618-.926 1.236a9.834 9.834 0 0 1-1.044 1.107 5.912 5.912 0 0 1-1.1.8 2.267 2.267 0 0 1-1.1.309 2.321 2.321 0 0 1-.761-.129 2.2 2.2 0 0 1-.729-.438 12.091 12.091 0 0 0-.031-2.073 9.131 9.131 0 0 0-.346-1.764 6.433 6.433 0 0 0-1.417-2.511 8.17 8.17 0 0 0-2.1-1.635 8.847 8.847 0 0 0-2.347-.875 10.5 10.5 0 0 0-2.179-.258 9.4 9.4 0 0 0-3.89.734 7.9 7.9 0 0 0-2.691 1.931 8.62 8.62 0 0 0-1.638 2.7 13.561 13.561 0 0 0-.774 3.038 13.987 13.987 0 0 0-.086 2.974 11.436 11.436 0 0 0 .439 2.472 7.055 7.055 0 0 0 1.4 2.575 8.707 8.707 0 0 0 1.991 1.712 8.124 8.124 0 0 0 2.109.94 6.919 6.919 0 0 0 1.762.283 11.619 11.619 0 0 0 3.443-.476A9.474 9.474 0 0 0 86 35.994a8.181 8.181 0 0 0 2-2.034 10.308 10.308 0 0 0 1.289-2.626 6.743 6.743 0 0 0 1.484.669 4.775 4.775 0 0 0 1.365.206 3.15 3.15 0 0 0 1.788-.541 7.161 7.161 0 0 0 1.468-1.311l.026-.031c-.1.64-.186 1.253-.259 1.834q-.163 1.288-.217 2.266a4.393 4.393 0 0 0 .083 1.416 2.876 2.876 0 0 0 .95 1.391 2.445 2.445 0 0 0 1.594.566 1.483 1.483 0 0 0 1.281-.554 3.846 3.846 0 0 0 .607-1.391 16.644 16.644 0 0 0 .324-1.8 11.631 11.631 0 0 1 .372-1.815q.429-1.262 1.011-2.858a18.329 18.329 0 0 1 1.422-3.026 9.1 9.1 0 0 1 2.016-2.408 4.265 4.265 0 0 1 2.822-.979 1.076 1.076 0 0 1 .741.27 1.442 1.442 0 0 1 .424.657 2.486 2.486 0 0 1 .02 1.133q-.117.7-.341 1.584t-.506 1.88q-.282.992-.5 2a15.1 15.1 0 0 0-.288 1.957 5.459 5.459 0 0 0 .123 1.751q.039.207.078.373c.026.112.058.228.1.348a4.544 4.544 0 0 0 1.3 2.124 3.268 3.268 0 0 0 2.233.76 5.116 5.116 0 0 0 .985-.1 8.9 8.9 0 0 0 1.126-.309 18.8 18.8 0 0 0 3.029-1.223 18.17 18.17 0 0 0 2.286-1.416 22.783 22.783 0 0 0 1.986-1.635l.141-.13a10.051 10.051 0 0 0 .815 1.7 7.2 7.2 0 0 0 1.53 1.8 7.02 7.02 0 0 0 2.134 1.223 8.048 8.048 0 0 0 2.793.451 9.554 9.554 0 0 0 4.935-1.223 9.264 9.264 0 0 0 3.442-3.85 4.73 4.73 0 0 0 1.436.721 5.474 5.474 0 0 0 1.592.232 10.82 10.82 0 0 0 2.452-.27 14.04 14.04 0 0 0 1.362-.392 10.911 10.911 0 0 0 1.944 2.233 9.547 9.547 0 0 0 2.534 1.6 7.361 7.361 0 0 0 2.928.592 12.983 12.983 0 0 0 3.507-.476 19.022 19.022 0 0 0 3.191-1.2 21.375 21.375 0 0 0 2.746-1.59q.93-.635 1.672-1.222a6.289 6.289 0 0 0 1.048 1.724 8.105 8.105 0 0 0 1.839 1.6 7.536 7.536 0 0 0 1.965.888 6.325 6.325 0 0 0 1.642.27 4.845 4.845 0 0 0 2.4-.605 8 8 0 0 0 1.963-1.545 11.287 11.287 0 0 0 1.536-2.086 20.914 20.914 0 0 0 1.118-2.227 4.131 4.131 0 0 0 .053.991 8 8 0 0 0 .967 2.678 6.685 6.685 0 0 0 1.07 1.4 5.369 5.369 0 0 0 1.383 1 3.638 3.638 0 0 0 1.666.386 4.525 4.525 0 0 0 1.988-.476 10.275 10.275 0 0 0 1.922-1.223 15.228 15.228 0 0 0 1.768-1.656c.2-.22.394-.439.584-.657-.011.206-.019.4-.024.593a4.757 4.757 0 0 0 .117 1.442 2.94 2.94 0 0 0 .984 1.416 2.545 2.545 0 0 0 1.653.592 1.374 1.374 0 0 0 1.235-.579 4.157 4.157 0 0 0 .57-1.429 13.228 13.228 0 0 0 .256-1.854 11.972 11.972 0 0 1 .269-1.854q.257-.824.56-1.828t.691-2.025a16.892 16.892 0 0 1 .9-1.97 8.335 8.335 0 0 1 1.184-1.687 5.691 5.691 0 0 1 1.509-1.184 3.931 3.931 0 0 1 1.893-.451 1.124 1.124 0 0 1 .754.27 1.448 1.448 0 0 1 .445.682 1.884 1.884 0 0 1 .083.76 3.994 3.994 0 0 1-.166.785q-.442 1.468-1.006 2.871t-.987 2.768a14.8 14.8 0 0 0-.573 2.652 6.017 6.017 0 0 0 .236 2.524 1.8 1.8 0 0 0 .412.618 2.991 2.991 0 0 0 .642.489 3.492 3.492 0 0 0 .757.322 2.55 2.55 0 0 0 .706.116 1.375 1.375 0 0 0 1.235-.579 4.161 4.161 0 0 0 .569-1.429 13.232 13.232 0 0 0 .256-1.854 11.976 11.976 0 0 1 .269-1.854q.257-.824.56-1.828t.699-2.021a16.941 16.941 0 0 1 .9-1.97 8.347 8.347 0 0 1 1.184-1.687 5.691 5.691 0 0 1 1.509-1.184 3.931 3.931 0 0 1 1.893-.451 1.124 1.124 0 0 1 .754.27 1.447 1.447 0 0 1 .445.682 1.885 1.885 0 0 1 .083.76 3.961 3.961 0 0 1-.166.785 11.611 11.611 0 0 1-.778 1.957 21.173 21.173 0 0 0-.886 2.021 9.188 9.188 0 0 0-.529 2.176 5.789 5.789 0 0 0 .269 2.421 4.931 4.931 0 0 0 2.067 2.858 6.242 6.242 0 0 0 3.359.9 6.883 6.883 0 0 0 2.771-.566 11.171 11.171 0 0 0 2.489-1.507 17.232 17.232 0 0 0 2.258-2.163q1.072-1.223 2.043-2.562a2.435 2.435 0 0 0 .677-1.21 2.323 2.323 0 0 0-.046-1.133m-138.363.051a5.785 5.785 0 0 1-.669 2.3 4.687 4.687 0 0 1-1.48 1.648 3.642 3.642 0 0 1-2.107.631 2.59 2.59 0 0 1-1.341-.335 3.51 3.51 0 0 1-.97-.837 4.965 4.965 0 0 1-.66-1.081 9.893 9.893 0 0 1-.412-1.069 6.389 6.389 0 0 1-.287-2.562 5.7 5.7 0 0 1 .676-2.24 4.465 4.465 0 0 1 1.483-1.6 3.841 3.841 0 0 1 2.141-.605 2.855 2.855 0 0 1 1.355.3 3.168 3.168 0 0 1 .946.76 4.064 4.064 0 0 1 .627 1.017 11.218 11.218 0 0 1 .4 1.069 6.691 6.691 0 0 1 .3 2.6m48.658-.605a6.54 6.54 0 0 1-.959 2.614 5.813 5.813 0 0 1-1.926 1.867 5.1 5.1 0 0 1-2.675.708 3.293 3.293 0 0 1-1.305-.222 2.811 2.811 0 0 1-.894-.592 2.994 2.994 0 0 1-.568-.785 5.787 5.787 0 0 1-.339-.837 5.867 5.867 0 0 1-.176-2.948 6.86 6.86 0 0 1 1.1-2.614 6.22 6.22 0 0 1 2.055-1.867 5.4 5.4 0 0 1 2.714-.708 2.34 2.34 0 0 1 1.108.245 2.746 2.746 0 0 1 .782.605 3.264 3.264 0 0 1 .52.8 7.022 7.022 0 0 1 .322.824 6.505 6.505 0 0 1 .246 2.923m12.765.966q0-.489.072-1.21a10.723 10.723 0 0 1 .262-1.506 13.346 13.346 0 0 1 .5-1.584 5.19 5.19 0 0 1 .814-1.429 3.97 3.97 0 0 1 1.239-1.017 3.6 3.6 0 0 1 1.707-.386h.232a1.352 1.352 0 0 1 .24.026 1.489 1.489 0 0 1 .642.283 1.182 1.182 0 0 1 .438.618 1.667 1.667 0 0 1-.1 1.095 3.436 3.436 0 0 1-1.173 1.352q-.209.155-.7.592t-1.174.978q-.681.541-1.461 1.133t-1.536 1.056m26.862-2.781a12.433 12.433 0 0 1-.5 1.622 17.652 17.652 0 0 1-.814 1.841 13.127 13.127 0 0 1-1.044 1.725 6.934 6.934 0 0 1-1.168 1.287 1.852 1.852 0 0 1-1.169.5 2.393 2.393 0 0 1-1.243-.309 3.348 3.348 0 0 1-.9-.772 4.274 4.274 0 0 1-.614-1.017 11.111 11.111 0 0 1-.4-1.068 6.256 6.256 0 0 1-.271-2.511 5.722 5.722 0 0 1 .685-2.253 4.58 4.58 0 0 1 1.5-1.622 3.82 3.82 0 0 1 2.15-.618 4.534 4.534 0 0 1 1.01.142 5.617 5.617 0 0 1 1.176.425 4.8 4.8 0 0 1 1.038.682 1.957 1.957 0 0 1 .613.888 2.231 2.231 0 0 1-.056 1.056M57.862 18.134a9.176 9.176 0 0 0-9.176 9.176v.033a.452.452 0 0 0 .452.426h17.446a.452.452 0 0 0 .452-.426v-.033a9.176 9.176 0 0 0-9.176-9.176M42.613 37.554a.558.558 0 1 1-.558-.558.558.558 0 0 1 .558.558M65.978 34.465h-18.72a.55.55 0 0 0-.484.811l.009.018a.55.55 0 0 0 .484.288h18.7a.549.549 0 0 0 .484-.288l.009-.018a.55.55 0 0 0-.484-.811M68.466 29.403H47.257a.551.551 0 0 0-.549.582v.017a.549.549 0 0 0 .549.518h21.206a.549.549 0 0 0 .549-.518v-.017a.551.551 0 0 0-.549-.582M60.48 42.058h-9.558a.55.55 0 0 0-.245 1.042l.035.018a.547.547 0 0 0 .245.057h9.488a.548.548 0 0 0 .245-.057l.035-.018a.55.55 0 0 0-.245-1.042M66.32 39.527h-9.558a.55.55 0 0 0-.245 1.042l.035.018a.547.547 0 0 0 .245.057h9.488a.548.548 0 0 0 .245-.057l.035-.018a.55.55 0 0 0-.245-1.042M53.287 37.937l-.016-.017a.55.55 0 0 1 .4-.924h15.512a.55.55 0 0 1 .4.924l-.016.017a.554.554 0 0 1-.4.176H53.695a.554.554 0 0 1-.4-.176M44.049 36.996h7.408a.55.55 0 0 1 .245 1.042l-.035.018a.549.549 0 0 1-.245.057h-7.338a.548.548 0 0 1-.245-.057l-.035-.018a.55.55 0 0 1 .245-1.042M45.822 29.961a.558.558 0 1 1-.558-.558.558.558 0 0 1 .558.558M58.985 32.642v-.017a.55.55 0 0 0-.531-.692h-15.51a.55.55 0 0 0-.531.692v.017a.551.551 0 0 0 .531.408h15.5a.552.552 0 0 0 .531-.408M41.508 32.492a.558.558 0 1 1-.558-.558.558.558 0 0 1 .558.558M45.822 35.027a.558.558 0 1 1-.558-.558.558.558 0 0 1 .558.558M55.326 40.085a.558.558 0 1 1-.558-.558.558.558 0 0 1 .558.558M49.483 42.616a.558.558 0 1 1-.558-.558.558.558 0 0 1 .558.558"/></g></svg>