<svg viewBox="0 0 214.806 45.942" xmlns="http://www.w3.org/2000/svg"><clipPath id="a"><path d="M0 0h214.806v45.942H0z"/></clipPath><g clip-path="url('#a')" fill="#070f31"><path d="M66.71 6.853a27.374 27.374 0 0 0-5.926.584 2.479 2.479 0 0 0-2.065 2.334l-5.7 26.307a8.955 8.955 0 0 0-.18 1.436 2.052 2.052 0 0 0 2.245 2.155c1.527 0 2.155-.987 2.469-2.514l1.616-7.5a38.063 38.063 0 0 0 4.714.269c9.293 0 15.083-5.028 15.083-12.614 0-6.644-4.624-10.46-12.255-10.46m-3.052 18.764a27.683 27.683 0 0 1-3.592-.179l3.008-13.961a27.008 27.008 0 0 1 3.771-.314c4.938 0 7.452 2.334 7.452 6.2 0 4.938-3.591 8.26-10.641 8.26zM212.962 31.005c-.763 0-1.257.449-2.2 1.481-1.661 1.706-2.694 2.649-4 2.649-1.167 0-1.8-.942-1.8-2.469a16.4 16.4 0 0 1 .4-3.007l1.661-7.811h4.984a2.292 2.292 0 0 0 2.514-2.514c0-.9-.584-1.571-1.93-1.571h-4.671l.808-3.636a9.487 9.487 0 0 0 .179-1.481 2.075 2.075 0 0 0-2.245-2.155c-1.482 0-2.155.988-2.469 2.514l-1.033 4.759h-2.11a2.305 2.305 0 0 0-2.559 2.514c0 .9.628 1.571 1.975 1.571h1.841l-1.645 7.718a18.7 18.7 0 0 0-.4 3.681c0 3.636 1.886 6.285 5.926 6.285a9.2 9.2 0 0 0 5.971-2.559c1.526-1.347 2.649-3.007 2.649-4.085a1.857 1.857 0 0 0-1.84-1.885M109.715 9.502a2.088 2.088 0 0 0-2.29-2.155c-1.481 0-2.154.988-2.469 2.514l-5.611 26.082a5.91 5.91 0 0 0-.224 1.437 2.074 2.074 0 0 0 2.245 2.155c1.526 0 2.2-.988 2.514-2.514l5.612-26.086a9.5 9.5 0 0 0 .223-1.436M189.846 17.313c-7.182 0-12.076 7.138-12.076 13.917 0 .127 0 .253.007.378-1.127 1.71-2.566 3.483-3.554 3.483-.718 0-.988-.673-.988-1.706a29.035 29.035 0 0 1 .763-5.208l3.727-17.242a8.94 8.94 0 0 0 .18-1.436 2.051 2.051 0 0 0-2.245-2.155c-1.526 0-2.155.988-2.469 2.514l-2.02 9.337a6.584 6.584 0 0 0-5.028-1.886c-4.77 0-9.568 3.672-11.438 9.3-2.059 5.324-3.9 8.473-5.352 8.473-.538 0-.853-.449-.853-1.212 0-2.245 1.257-7.721 1.8-10.37a10.514 10.514 0 0 0 .269-1.976c0-1.975-3.277-4.309-7.542-4.309a13.184 13.184 0 0 0-11.638 7.765c-3.326 5.877-6.378 10.1-7.889 10.1-.673 0-.9-.853-1.078-1.661l-1.122-6.2 6.869-5.612a3.3 3.3 0 0 0 1.436-2.272 1.908 1.908 0 0 0-2.02-2.02 3.972 3.972 0 0 0-2.424 1.167l-10.324 8.528 3.454-16.075a9.365 9.365 0 0 0 .224-1.436 2.088 2.088 0 0 0-2.289-2.155c-1.481 0-2.155.988-2.469 2.514l-5.612 26.085a5.935 5.935 0 0 0-.224 1.437 2.074 2.074 0 0 0 2.245 2.155c1.526 0 2.2-.988 2.514-2.514l.718-3.367 4.22-3.412 1.032 5.207c.4 2.065 1.481 4.085 4.265 4.085s4.947-2.529 7.129-5.946c.662 3.579 3.208 5.946 6.742 5.946s5.97-2.11 7.542-4.938v.09c0 2.918 1.482 4.849 4.085 4.849 2.354 0 4.31-1.419 6.056-4.437a6.512 6.512 0 0 0 6.287 4.437c3.636 0 6.24-2.2 7.9-5.253v.269c0 3.232 1.616 4.984 4.265 4.984 2.339 0 4.327-1.357 6.022-3.568a7.384 7.384 0 0 0 6.727 3.568c7.183 0 12.076-7.138 12.076-13.961 0-4.8-2.918-8.262-7.9-8.262m-44.756 9.113c-1.3 5.611-4.085 8.8-7.228 8.8-2.11 0-3.277-1.616-3.277-4.04 0-4.759 3.457-9.876 8.079-9.876a6.247 6.247 0 0 1 3.412.988zm25-2.378c-1.436 6.6-4.713 11.178-8.3 11.178-1.975 0-3.142-1.526-3.142-4.04 0-4.8 3.323-9.786 7.766-9.786a6.134 6.134 0 0 1 3.95 1.347zm16.12 11.178c-2.6 0-3.681-1.886-3.681-4.265 0-4.355 3.008-9.337 6.779-9.337 2.6 0 3.681 1.886 3.681 4.265 0 4.4-3.008 9.337-6.779 9.337M90.14 17.311c-7.183 0-12.076 7.138-12.076 13.917 0 4.848 2.918 8.3 7.9 8.3 7.183 0 12.076-7.138 12.076-13.961 0-4.8-2.919-8.26-7.9-8.26m-3.636 17.912c-2.6 0-3.681-1.886-3.681-4.265 0-4.354 3.008-9.337 6.779-9.337 2.6 0 3.681 1.886 3.681 4.265 0 4.4-3.008 9.337-6.779 9.337M21.599 0c4.575 0 8.283 2.158 8.283 4.82s-3.708 4.82-8.283 4.82-8.287-2.158-8.287-4.82S17.024 0 21.599 0M21.599 36.303c4.575 0 8.283 2.158 8.283 4.82s-3.708 4.82-8.283 4.82-8.283-2.158-8.283-4.82 3.708-4.82 8.283-4.82M1.706 11.486c2.287-3.962 6.01-6.095 8.316-4.764s2.32 5.621.032 9.583-6.01 6.095-8.316 4.764-2.32-5.622-.032-9.584M33.145 29.637c2.287-3.962 6.01-6.095 8.316-4.764s2.32 5.621.032 9.583-6.01 6.095-8.316 4.764-2.32-5.622-.032-9.584M1.738 24.873c2.305-1.331 6.028.8 8.316 4.764s2.273 8.253-.033 9.584-6.028-.8-8.316-4.764-2.273-8.252.032-9.584M33.177 6.722c2.305-1.331 6.028.8 8.316 4.764s2.273 8.253-.033 9.584-6.028-.8-8.316-4.764-2.275-8.253.033-9.584"/></g></svg>