<svg viewBox="0 0 145.626 47.631" xmlns="http://www.w3.org/2000/svg"><clipPath id="a"><path d="M0 0h145.626v47.631H0z"/></clipPath><g fill="#070f31"><path d="M129.881 30.305h1.977l-5.9-7.082h-2.013l-.935-1.114 4.314-4.062 7.19-6.65h-10.421l-6.866 6.65-2.948 2.912v-9.563h-7.477v11.827h2.013v7.082h-2.013v5.9h7.477v-5.9h2.013l3.415-3.2 2.624 3.2h-1.976l4.817 5.9h9.6z"/><g clip-path="url('#a')"><path d="M102.237 30.305h-1.905a2.173 2.173 0 0 1-.108-.252 5.424 5.424 0 0 0-3.559-2.8 7.708 7.708 0 0 0 4.925-4.062h1.905a6.463 6.463 0 0 0 .575-2.588 11.594 11.594 0 0 0-.252-2.552c-.9-4.026-4.1-6.686-10.6-6.686H78.439v11.858h-1.905v7.118h1.905v5.9h7.118v-5.9h.647l4.745.036c2.588 0 3.2 1.69 5.069 5.859h8.951c-.971-2.337-2.337-5.069-2.732-5.931M85.521 18.046h7.19a2.6 2.6 0 1 1 0 5.177h-7.19zM38.213 30.305h-1.905a2.168 2.168 0 0 1-.108-.252 5.424 5.424 0 0 0-3.559-2.8 7.708 7.708 0 0 0 4.925-4.062h1.905a6.462 6.462 0 0 0 .575-2.588 11.594 11.594 0 0 0-.252-2.552c-.9-4.026-4.1-6.686-10.6-6.686H14.415v11.858H12.51v7.118h1.905v5.9h7.118v-5.9h.647l4.745.036c2.588 0 3.2 1.69 5.069 5.859h8.951c-1.007-2.337-2.337-5.069-2.732-5.931M21.497 18.046h7.19a2.6 2.6 0 1 1 0 5.177h-7.19zM64.383 11.396l-3.056 6.9-2.3 5.141h-.18l-2.3-5.141-3.055-6.9H43.393v11.827h-1.905v7.118h1.905v5.9h7.189v-5.9h-1.905v-7.118h.863l3.307 7.118h1.8l2.732 5.9h2.984l2.624-5.644h-1.905l3.415-7.333h.791v7.118h1.905v5.9h7.189v-5.9h-1.905v-7.159h1.905V11.396zM50.615 23.223v-1.87l.863 1.869zm15.781 0 .863-1.869v1.869z"/><path d="M145.626 23.222V2.84a2.823 2.823 0 0 0-2.84-2.84H4.709a2.823 2.823 0 0 0-2.84 2.84v20.382H0v7.118h1.869v14.451a2.823 2.823 0 0 0 2.84 2.84h138.077a2.823 2.823 0 0 0 2.84-2.84V30.34h-1.869v-7.118zm-5.392 7.078v11.9H7.261V30.3H5.392v-7.078h1.869V5.392h132.973v17.83h-1.869v7.118h1.869z"/></g></g></svg>